# xmcd
#
# Track frame offsets:
#	150
#	17988
#	41308
#	61230
#	85915
#	106244
#	126340
#	146246
#	168420
#	188737
#	205519
#	224378
#
# Disc length: 3304 seconds
#
# Revision: 0
# Processed by: cddbd v1.5.2PL0 Copyright (c) Steve Scherf et al.
# Submitted via: EZCDAudioConverter 5.0.0.1
#
DISCID=a70ce60c
DTITLE=Eddie Levert - Did I Make You Go Ohh
DYEAR=2016
DGENRE=R&B
TTITLE0=I Aint Goin For That
TTITLE1=Say It Aint So
TTITLE2=Never Miss Your Water
TTITLE3=I Let Go
TTITLE4=Bang The Walls
TTITLE5=Did I Make You Go Ohh
TTITLE6=My Heart Dont Lie
TTITLE7=It's Too Late
TTITLE8=Thats The Way Love Is
TTITLE9=The Big Groove
TTITLE10=Shit Starter
TTITLE11=How Much More Love
EXTD=
EXTT0=
EXTT1=
EXTT2=
EXTT3=
EXTT4=
EXTT5=
EXTT6=
EXTT7=
EXTT8=
EXTT9=
EXTT10=
EXTT11=
PLAYORDER=
